# Blender 4.2.0
# www.blender.org
mtllib mur.mtl
o cadre_b
v -9.483715 -5.411508 1.000000
v -9.483715 -3.411508 1.000000
v -9.483715 -5.411508 -1.000000
v -9.483715 -3.411508 -1.000000
v 6.309294 -5.411508 1.000000
v 6.309294 -3.411508 1.000000
v 6.309294 -5.411508 -1.000000
v 6.309294 -3.411508 -1.000000
vn -1.0000 -0.0000 -0.0000
vn -0.0000 -0.0000 -1.0000
vn 1.0000 -0.0000 -0.0000
vn -0.0000 -0.0000 1.0000
vn -0.0000 -1.0000 -0.0000
vn -0.0000 1.0000 -0.0000
vt 0.375000 0.000000
vt 0.625000 0.000000
vt 0.625000 0.250000
vt 0.375000 0.250000
vt 0.625000 0.500000
vt 0.375000 0.500000
vt 0.625000 0.750000
vt 0.375000 0.750000
vt 0.625000 1.000000
vt 0.375000 1.000000
vt 0.125000 0.500000
vt 0.125000 0.750000
vt 0.875000 0.500000
vt 0.875000 0.750000
s 0
f 1/1/1 2/2/1 4/3/1 3/4/1
f 3/4/2 4/3/2 8/5/2 7/6/2
f 7/6/3 8/5/3 6/7/3 5/8/3
f 5/8/4 6/7/4 2/9/4 1/10/4
f 3/11/5 7/6/5 5/8/5 1/12/5
f 8/5/6 4/13/6 2/14/6 6/7/6
o cadre_h
v -9.483715 8.588491 1.000000
v -9.483715 10.588491 1.000000
v -9.483715 8.588491 -1.000000
v -9.483715 10.588491 -1.000000
v 6.309294 8.588491 1.000000
v 6.309294 10.588491 1.000000
v 6.309294 8.588491 -1.000000
v 6.309294 10.588491 -1.000000
vn -1.0000 -0.0000 -0.0000
vn -0.0000 -0.0000 -1.0000
vn 1.0000 -0.0000 -0.0000
vn -0.0000 -0.0000 1.0000
vn -0.0000 -1.0000 -0.0000
vn -0.0000 1.0000 -0.0000
vt 0.375000 0.000000
vt 0.625000 0.000000
vt 0.625000 0.250000
vt 0.375000 0.250000
vt 0.625000 0.500000
vt 0.375000 0.500000
vt 0.625000 0.750000
vt 0.375000 0.750000
vt 0.625000 1.000000
vt 0.375000 1.000000
vt 0.125000 0.500000
vt 0.125000 0.750000
vt 0.875000 0.500000
vt 0.875000 0.750000
s 0
f 9/15/7 10/16/7 12/17/7 11/18/7
f 11/18/8 12/17/8 16/19/8 15/20/8
f 15/20/9 16/19/9 14/21/9 13/22/9
f 13/22/10 14/21/10 10/23/10 9/24/10
f 11/25/11 15/20/11 13/22/11 9/26/11
f 16/19/12 12/27/12 10/28/12 14/21/12
o cadre_d
v 6.285801 10.569654 1.000000
v 8.285801 10.569654 1.000000
v 6.285801 10.569654 -1.000000
v 8.285801 10.569654 -1.000000
v 6.285800 -5.435001 1.000000
v 8.285801 -5.435001 1.000000
v 6.285800 -5.435001 -1.000000
v 8.285801 -5.435001 -1.000000
vn -0.0000 1.0000 -0.0000
vn -0.0000 -0.0000 -1.0000
vn -0.0000 -1.0000 -0.0000
vn -0.0000 -0.0000 1.0000
vn -1.0000 -0.0000 -0.0000
vn 1.0000 -0.0000 -0.0000
vt 0.375000 0.000000
vt 0.625000 0.000000
vt 0.625000 0.250000
vt 0.375000 0.250000
vt 0.625000 0.500000
vt 0.375000 0.500000
vt 0.625000 0.750000
vt 0.375000 0.750000
vt 0.625000 1.000000
vt 0.375000 1.000000
vt 0.125000 0.500000
vt 0.125000 0.750000
vt 0.875000 0.500000
vt 0.875000 0.750000
s 0
f 17/29/13 18/30/13 20/31/13 19/32/13
f 19/32/14 20/31/14 24/33/14 23/34/14
f 23/34/15 24/33/15 22/35/15 21/36/15
f 21/36/16 22/35/16 18/37/16 17/38/16
f 19/39/17 23/34/17 21/36/17 17/40/17
f 24/33/18 20/41/18 18/42/18 22/35/18
o cadre_g
v -11.494199 10.569654 1.000000
v -9.494199 10.569654 1.000000
v -11.494199 10.569654 -1.000000
v -9.494199 10.569654 -1.000000
v -11.494199 -5.435001 1.000000
v -9.494199 -5.435001 1.000000
v -11.494199 -5.435001 -1.000000
v -9.494199 -5.435001 -1.000000
vn -0.0000 1.0000 -0.0000
vn -0.0000 -0.0000 -1.0000
vn -0.0000 -1.0000 -0.0000
vn -0.0000 -0.0000 1.0000
vn -1.0000 -0.0000 -0.0000
vn 1.0000 -0.0000 -0.0000
vt 0.375000 0.000000
vt 0.625000 0.000000
vt 0.625000 0.250000
vt 0.375000 0.250000
vt 0.625000 0.500000
vt 0.375000 0.500000
vt 0.625000 0.750000
vt 0.375000 0.750000
vt 0.625000 1.000000
vt 0.375000 1.000000
vt 0.125000 0.500000
vt 0.125000 0.750000
vt 0.875000 0.500000
vt 0.875000 0.750000
s 0
f 25/43/19 26/44/19 28/45/19 27/46/19
f 27/46/20 28/45/20 32/47/20 31/48/20
f 31/48/21 32/47/21 30/49/21 29/50/21
f 29/50/22 30/49/22 26/51/22 25/52/22
f 27/53/23 31/48/23 29/50/23 25/54/23
f 32/47/24 28/55/24 26/56/24 30/49/24
o mur_d
v 8.219999 10.670000 19.310001
v 8.219999 -5.467063 19.310001
v 8.219999 10.670000 -0.690000
v 8.219999 -5.467063 -0.690000
v 8.219999 6.788839 4.252213
v 8.219999 6.788839 8.632593
v 8.219999 3.078180 8.632593
v 8.219999 3.078180 4.252213
vn 1.0000 -0.0000 -0.0000
vt 0.436649 0.352312
vt 0.436649 0.647688
vt 0.000000 1.000000
vt 0.000000 0.000000
vt 0.563351 0.352311
vt 1.000000 0.000000
vt 0.563351 0.647688
vt 1.000000 1.000000
s 0
f 38/57/25 37/58/25 35/59/25 33/60/25
f 39/61/25 38/57/25 33/60/25 34/62/25
f 40/63/25 39/61/25 34/62/25 36/64/25
f 37/58/25 40/63/25 36/64/25 35/59/25
o sol.001
v -11.208157 10.616219 19.591190
v -11.208157 -5.670828 19.591190
v -11.208157 10.616219 -0.408809
v -11.208157 -5.670828 -0.408809
vn 1.0000 -0.0000 -0.0000
vt 0.000000 0.000000
vt 1.000000 0.000000
vt 1.000000 1.000000
vt 0.000000 1.000000
s 0
f 41/65/26 42/66/26 44/67/26 43/68/26
